<mxfile host="app.diagrams.net" agent="Mozilla/5.0 (Windows NT 10.0; Win64; x64) AppleWebKit/537.36 (KHTML, like Gecko) Chrome/136.0.0.0 Safari/537.36" version="27.0.3">
  <diagram name="Page-1" id="KGlpg0xU6blUvREhiUEq">
    <mxGraphModel dx="1292" dy="693" grid="1" gridSize="10" guides="1" tooltips="1" connect="1" arrows="1" fold="1" page="1" pageScale="1" pageWidth="827" pageHeight="1169" math="0" shadow="0">
      <root>
        <mxCell id="0" />
        <mxCell id="1" parent="0" />
        <mxCell id="CtS4yO4lMtsy3PQY0XL2-14" value="" style="edgeStyle=orthogonalEdgeStyle;rounded=0;orthogonalLoop=1;jettySize=auto;html=1;" edge="1" parent="1" source="CtS4yO4lMtsy3PQY0XL2-1" target="CtS4yO4lMtsy3PQY0XL2-5">
          <mxGeometry relative="1" as="geometry" />
        </mxCell>
        <mxCell id="CtS4yO4lMtsy3PQY0XL2-1" value="Client" style="ellipse;whiteSpace=wrap;html=1;" vertex="1" parent="1">
          <mxGeometry x="270" y="30" width="120" height="80" as="geometry" />
        </mxCell>
        <mxCell id="CtS4yO4lMtsy3PQY0XL2-13" value="" style="edgeStyle=orthogonalEdgeStyle;rounded=0;orthogonalLoop=1;jettySize=auto;html=1;" edge="1" parent="1" source="CtS4yO4lMtsy3PQY0XL2-5" target="CtS4yO4lMtsy3PQY0XL2-6">
          <mxGeometry relative="1" as="geometry" />
        </mxCell>
        <mxCell id="CtS4yO4lMtsy3PQY0XL2-5" value="OrderTopic" style="rounded=1;whiteSpace=wrap;html=1;" vertex="1" parent="1">
          <mxGeometry x="270" y="170" width="120" height="60" as="geometry" />
        </mxCell>
        <mxCell id="CtS4yO4lMtsy3PQY0XL2-8" value="" style="edgeStyle=orthogonalEdgeStyle;rounded=0;orthogonalLoop=1;jettySize=auto;html=1;" edge="1" parent="1" source="CtS4yO4lMtsy3PQY0XL2-6" target="CtS4yO4lMtsy3PQY0XL2-7">
          <mxGeometry relative="1" as="geometry" />
        </mxCell>
        <mxCell id="CtS4yO4lMtsy3PQY0XL2-10" value="" style="edgeStyle=orthogonalEdgeStyle;rounded=0;orthogonalLoop=1;jettySize=auto;html=1;" edge="1" parent="1" source="CtS4yO4lMtsy3PQY0XL2-6" target="CtS4yO4lMtsy3PQY0XL2-9">
          <mxGeometry relative="1" as="geometry" />
        </mxCell>
        <mxCell id="CtS4yO4lMtsy3PQY0XL2-6" value="OrderQueue" style="rounded=1;whiteSpace=wrap;html=1;" vertex="1" parent="1">
          <mxGeometry x="270" y="300" width="120" height="60" as="geometry" />
        </mxCell>
        <mxCell id="CtS4yO4lMtsy3PQY0XL2-7" value="DLQQueue" style="whiteSpace=wrap;html=1;rounded=1;" vertex="1" parent="1">
          <mxGeometry x="470" y="300" width="120" height="60" as="geometry" />
        </mxCell>
        <mxCell id="CtS4yO4lMtsy3PQY0XL2-12" value="" style="edgeStyle=orthogonalEdgeStyle;rounded=0;orthogonalLoop=1;jettySize=auto;html=1;" edge="1" parent="1" source="CtS4yO4lMtsy3PQY0XL2-9" target="CtS4yO4lMtsy3PQY0XL2-11">
          <mxGeometry relative="1" as="geometry" />
        </mxCell>
        <mxCell id="CtS4yO4lMtsy3PQY0XL2-9" value="orderFunction" style="rounded=1;whiteSpace=wrap;html=1;" vertex="1" parent="1">
          <mxGeometry x="270" y="440" width="120" height="60" as="geometry" />
        </mxCell>
        <mxCell id="CtS4yO4lMtsy3PQY0XL2-11" value="Orders" style="shape=cylinder3;whiteSpace=wrap;html=1;boundedLbl=1;backgroundOutline=1;size=15;" vertex="1" parent="1">
          <mxGeometry x="300" y="585" width="60" height="80" as="geometry" />
        </mxCell>
      </root>
    </mxGraphModel>
  </diagram>
</mxfile>
